<?xml version="1.0" encoding="UTF-8" standalone="no"?>
<!DOCTYPE svg PUBLIC "-//W3C//DTD SVG 1.1//EN" "http://www.w3.org/Graphics/SVG/1.1/DTD/svg11.dtd">
<svg width="100%" height="100%" viewBox="0 0 1316 205" version="1.1" xmlns="http://www.w3.org/2000/svg" xmlns:xlink="http://www.w3.org/1999/xlink" xml:space="preserve" style="fill-rule:evenodd;clip-rule:evenodd;stroke-linejoin:round;stroke-miterlimit:1.41421;">
    <g id="Artboard1" transform="matrix(0.990185,0,0,1,-0.946713,-0.846)">
        <rect x="0.956" y="0.846" width="1329.04" height="204.154" style="fill:none;"/>
        <clipPath id="_clip1">
            <rect x="0.956" y="0.846" width="1329.04" height="204.154"/>
        </clipPath>
        <g clip-path="url(#_clip1)">
            <g transform="matrix(1.00991,0,0,1,-0.00947662,0)">
                <path d="M309,78.145L351.983,78.145C357.807,78.145 363.457,78.757 368.933,79.98C374.407,81.203 379.27,83.212 383.523,86.008C387.773,88.804 391.181,92.473 393.743,97.016C396.306,101.559 397.587,107.092 397.587,113.616C397.587,122.586 395.054,129.896 389.987,135.544C384.919,141.194 378.017,145.009 369.281,146.989L402.306,201.854L375.746,201.854L347.092,149.434L331.018,149.434L331.018,201.854L309,201.854L309,78.145ZM349.013,131.438C352.158,131.438 355.303,131.205 358.448,130.738C361.593,130.273 364.418,129.4 366.922,128.118C369.427,126.838 371.495,125.002 373.125,122.614C374.755,120.226 375.572,117.168 375.572,113.441C375.572,110.064 374.814,107.297 373.3,105.141C371.786,102.987 369.864,101.269 367.534,99.988C365.204,98.706 362.554,97.833 359.584,97.368C356.614,96.901 353.73,96.668 350.934,96.668L331.016,96.668L331.016,131.438L349.013,131.438ZM476.913,151.532C476.913,148.852 476.535,146.29 475.778,143.844C475.021,141.398 473.828,139.244 472.196,137.379C470.566,135.514 468.498,134.029 465.993,132.922C463.489,131.816 460.548,131.262 457.17,131.262C450.88,131.262 445.55,133.155 441.182,136.942C436.814,140.727 434.397,145.59 433.932,151.532L476.914,151.532L476.913,151.532ZM497.881,160.968L497.881,163.763C497.881,164.695 497.824,165.627 497.708,166.559L433.93,166.559C434.164,169.587 434.95,172.353 436.29,174.859C437.63,177.362 439.406,179.517 441.62,181.323C443.832,183.128 446.336,184.555 449.132,185.603C451.928,186.653 454.84,187.176 457.869,187.176C463.109,187.176 467.536,186.216 471.147,184.293C474.757,182.371 477.727,179.721 480.057,176.343L494.037,187.526C485.767,198.709 473.767,204.3 458.042,204.3C451.519,204.3 445.52,203.282 440.045,201.243C434.57,199.205 429.825,196.323 425.805,192.593C421.785,188.866 418.641,184.293 416.37,178.878C414.1,173.461 412.963,167.316 412.963,160.444C412.963,153.687 414.099,147.544 416.371,142.009C418.643,136.475 421.759,131.759 425.721,127.855C429.681,123.953 434.369,120.925 439.785,118.769C445.202,116.614 451.055,115.537 457.345,115.537C463.17,115.537 468.557,116.497 473.508,118.42C478.458,120.343 482.738,123.197 486.35,126.983C489.96,130.768 492.785,135.486 494.824,141.136C496.862,146.786 497.881,153.396 497.881,160.968L497.881,160.968ZM570.221,191.196L569.696,191.196C567.599,194.924 564.221,197.982 559.562,200.37C554.902,202.758 549.602,203.952 543.662,203.952C540.284,203.952 536.76,203.515 533.092,202.642C529.422,201.767 526.044,200.312 522.957,198.272C519.87,196.234 517.307,193.555 515.269,190.235C513.229,186.915 512.211,182.809 512.211,177.917C512.211,171.627 513.987,166.617 517.539,162.89C521.092,159.162 525.664,156.308 531.256,154.328C536.846,152.348 543.05,151.038 549.864,150.398C556.679,149.756 563.347,149.435 569.87,149.435L569.87,147.339C569.87,142.096 567.977,138.223 564.19,135.719C560.405,133.214 555.89,131.961 550.65,131.961C546.223,131.961 541.97,132.893 537.894,134.757C533.817,136.621 530.439,138.892 527.76,141.572L516.927,128.816C521.703,124.39 527.207,121.07 533.439,118.856C539.669,116.643 545.989,115.536 552.396,115.536C559.851,115.536 565.996,116.586 570.829,118.682C575.664,120.779 579.479,123.516 582.274,126.894C585.07,130.272 587.021,134.058 588.128,138.252C589.233,142.445 589.788,146.639 589.788,150.832L589.788,201.854L570.218,201.854L570.218,191.194L570.221,191.196ZM569.871,163.589L565.153,163.589C561.775,163.589 558.223,163.733 554.493,164.025C550.767,164.315 547.331,164.955 544.185,165.947C541.04,166.937 538.419,168.335 536.323,170.14C534.226,171.947 533.178,174.422 533.178,177.567C533.178,179.547 533.614,181.207 534.488,182.547C535.362,183.887 536.498,184.964 537.895,185.78C539.293,186.595 540.865,187.177 542.613,187.527C544.36,187.877 546.107,188.051 547.855,188.051C555.077,188.051 560.552,186.131 564.279,182.286C568.007,178.442 569.869,173.2 569.869,166.56L569.869,163.59L569.871,163.589ZM667.561,141.222C665.931,138.892 663.485,136.942 660.224,135.369C656.962,133.796 653.642,133.009 650.264,133.009C646.42,133.009 643.042,133.796 640.13,135.369C637.217,136.941 634.8,139.009 632.878,141.572C630.956,144.134 629.528,147.017 628.598,150.222C627.665,153.424 627.198,156.657 627.198,159.918C627.198,163.178 627.694,166.412 628.684,169.615C629.674,172.818 631.16,175.701 633.14,178.265C635.12,180.827 637.595,182.895 640.566,184.467C643.536,186.039 647.002,186.825 650.962,186.825C654.224,186.825 657.485,186.185 660.747,184.903C664.009,183.623 666.63,181.758 668.61,179.313L681.714,192.591C678.22,196.319 673.764,199.201 668.348,201.241C662.931,203.279 657.078,204.298 650.788,204.298C644.614,204.298 638.76,203.308 633.228,201.328C627.694,199.348 622.86,196.436 618.725,192.592C614.59,188.748 611.328,184.089 608.94,178.614C606.552,173.139 605.358,166.907 605.358,159.917C605.358,153.16 606.552,147.045 608.94,141.57C611.328,136.095 614.56,131.435 618.637,127.59C622.714,123.747 627.461,120.777 632.877,118.68C638.294,116.583 644.09,115.535 650.263,115.535C656.437,115.535 662.407,116.699 668.173,119.029C673.939,121.359 678.511,124.562 681.889,128.639L667.559,141.219L667.561,141.222ZM690.546,134.757L690.546,117.983L705.223,117.983L705.223,93.696L725.841,93.696L725.841,117.984L746.809,117.984L746.809,134.758L725.84,134.758L725.84,173.723C725.84,177.451 726.51,180.538 727.85,182.983C729.19,185.43 732.19,186.653 736.848,186.653C738.246,186.653 739.76,186.508 741.391,186.216C743.023,185.926 744.479,185.488 745.761,184.906L746.459,201.331C744.595,202.031 742.382,202.584 739.819,202.991C737.257,203.399 734.811,203.603 732.481,203.603C726.891,203.603 722.347,202.817 718.851,201.243C715.358,199.673 712.591,197.517 710.553,194.779C708.513,192.042 707.116,188.897 706.359,185.344C705.602,181.791 705.223,177.976 705.223,173.899L705.223,134.759L690.546,134.759L690.546,134.757ZM762.36,117.983L783.326,117.983L783.326,201.853L762.36,201.853L762.36,117.983L762.36,117.983ZM759.388,89.503C759.388,86.123 760.64,83.183 763.145,80.678C765.649,78.172 768.823,76.92 772.667,76.92C776.512,76.92 779.744,78.114 782.365,80.502C784.985,82.89 786.295,85.89 786.295,89.502C786.295,93.112 784.985,96.112 782.365,98.499C779.745,100.889 776.512,102.082 772.667,102.082C768.823,102.082 765.649,100.83 763.145,98.326C760.64,95.821 759.388,92.88 759.388,89.502L759.388,89.503ZM796.256,117.983L819.146,117.983L841.161,179.139L841.511,179.139L863.701,117.983L885.891,117.983L852.519,201.853L830.154,201.853L796.257,117.983L796.256,117.983ZM953.419,151.531C953.419,148.851 953.039,146.289 952.282,143.843C951.525,141.397 950.332,139.243 948.7,137.378C947.07,135.513 945.003,134.028 942.498,132.921C939.994,131.815 937.053,131.261 933.675,131.261C927.385,131.261 922.055,133.154 917.687,136.941C913.319,140.726 910.902,145.589 910.437,151.531L953.419,151.531ZM974.385,160.967L974.385,163.762C974.385,164.694 974.327,165.626 974.211,166.558L910.435,166.558C910.668,169.586 911.455,172.352 912.795,174.858C914.133,177.361 915.909,179.516 918.123,181.322C920.336,183.127 922.84,184.554 925.636,185.602C928.432,186.652 931.344,187.175 934.372,187.175C939.614,187.175 944.042,186.215 947.652,184.292C951.262,182.37 954.232,179.72 956.562,176.342L970.542,187.525C962.272,198.708 950.272,204.299 934.547,204.299C928.024,204.299 922.025,203.281 916.55,201.242C911.076,199.204 906.33,196.322 902.31,192.592C898.292,188.865 895.147,184.292 892.875,178.877C890.605,173.46 889.468,167.315 889.468,160.443C889.468,153.686 890.604,147.543 892.875,142.008C895.147,136.474 898.263,131.758 902.223,127.854C906.183,123.952 910.873,120.924 916.289,118.768C921.705,116.613 927.559,115.536 933.849,115.536C939.673,115.536 945.059,116.496 950.011,118.419C954.961,120.342 959.241,123.196 962.853,126.982C966.463,130.767 969.289,135.485 971.328,141.135C973.365,146.785 974.384,153.395 974.384,160.967L974.385,160.967Z" style="fill:rgb(162,88,64);"/>
                <g id="Path" transform="matrix(1,0,0,1,1,0)">
                    <path d="M113.07,18.61C107.374,8.472 112.19,0.254 123.806,0.254L240.656,0.254C257.401,0.254 264.321,12.094 256.119,26.694L186.864,149.954L113.07,18.61Z" style="fill:url(#_Linear2);"/>
                </g>
                <g transform="matrix(1,0,0,1,1,0)">
                    <path d="M95.56,13.563C97.957,10.237 102.896,0.846 122.062,0.846C109.762,3.288 110.784,14.036 114.728,21.056L202.372,177.051C210.576,191.653 203.649,203.489 186.906,203.489L18.886,203.489C2.141,203.489 -4.794,191.646 3.396,177.044C3.396,177.044 93.161,16.891 95.559,13.564L95.56,13.563Z" style="fill:url(#_Linear3);"/>
                </g>
                <g transform="matrix(1,0,0,1,-18.8341,151.253)">
                    <text x="994.884px" y="50.176px" style="font-family:'AvenirNext-Regular', 'Avenir Next', sans-serif;font-size:173px;fill:rgb(162,88,64);">S</text>
                    <g transform="matrix(0.9,0,0,1,108.121,0)">
                        <text x="1081.21px" y="50.176px" style="font-family:'AvenirNext-Regular', 'Avenir Next', sans-serif;font-size:173px;fill:rgb(162,88,64);">w</text>
                    </g>
                    <text x="1191.13px" y="50.176px" style="font-family:'AvenirNext-Regular', 'Avenir Next', sans-serif;font-size:173px;fill:rgb(162,88,64);">i</text>
                    <text x="1227.46px" y="50.176px" style="font-family:'AvenirNext-Regular', 'Avenir Next', sans-serif;font-size:173px;fill:rgb(162,88,64);">f</text>
                    <text x="1281.96px" y="50.176px" style="font-family:'AvenirNext-Regular', 'Avenir Next', sans-serif;font-size:173px;fill:rgb(162,88,64);">t</text>
                </g>
            </g>
        </g>
    </g>
    <defs>
        <linearGradient id="_Linear2" x1="0" y1="0" x2="1" y2="0" gradientUnits="userSpaceOnUse" gradientTransform="matrix(9.16648e-15,149.7,-149.7,9.16648e-15,185.122,0.254)"><stop offset="0%" style="stop-color:rgb(254,164,54);stop-opacity:1"/><stop offset="100%" style="stop-color:rgb(255,47,15);stop-opacity:1"/></linearGradient>
        <linearGradient id="_Linear3" x1="0" y1="0" x2="1" y2="0" gradientUnits="userSpaceOnUse" gradientTransform="matrix(-156.788,101.321,-101.321,-156.788,156.744,102.168)"><stop offset="0%" style="stop-color:rgb(255,183,44);stop-opacity:1"/><stop offset="100%" style="stop-color:rgb(255,231,110);stop-opacity:1"/></linearGradient>
    </defs>
</svg>
